<svg width="600" height="600" viewBox="0 0 600 600" fill="none" xmlns="http://www.w3.org/2000/svg">
<rect width="600" height="600" fill="white"/>
<path d="M116.514 236C115.223 236.122 114.179 236.852 113.011 237.278C111.475 237.826 109.939 238.252 108.403 238.921C105.944 239.956 103.609 241.416 101.704 243.242C99.3695 245.433 97.28 248.11 95.6211 250.849C94.3305 252.979 92.9785 255.535 92.7328 258.03C92.7328 258.09 92.7328 258.151 92.7943 258.212C90.275 261.62 88.3084 265.332 86.1577 268.983C86.0347 269.166 85.912 269.349 85.7891 269.592C85.9735 268.983 86.0962 268.375 86.2192 267.827C86.9566 264.784 87.6324 261.742 87.8783 258.638C88.1854 255.109 88.0013 251.579 87.3867 248.11C86.7722 244.641 85.4819 241.294 84.9289 237.826C84.9289 237.582 84.56 237.521 84.4985 237.765C84.3758 238.191 84.1914 238.617 84.0069 238.982C84.0069 238.982 83.9455 238.982 83.9455 239.043C83.9455 239.104 83.9455 239.164 83.8842 239.225C82.6552 241.903 80.5659 244.215 79.644 247.076C78.7223 249.997 78.5993 253.1 78.5993 256.082C78.5993 259.247 79.0297 262.229 80.0129 265.211C80.5044 266.671 81.0575 268.01 81.7335 269.409C82.3478 270.687 83.0238 271.904 83.2082 273.304C83.0853 273.548 82.9008 273.791 82.8393 274.095C82.2863 275.617 81.9177 277.199 81.9177 278.781C81.7335 277.381 81.5491 275.982 81.2417 274.582C80.6274 271.661 79.5213 269.044 78.1693 266.367C76.6945 263.506 75.2813 260.646 73.6221 257.908C73.4992 257.725 73.2532 257.786 73.1306 257.969C70.2423 263.081 70.2423 269.47 71.4099 275.069C72.0244 278.112 72.8846 281.154 74.2979 283.893C75.0354 285.293 75.8343 286.631 76.879 287.849C77.9851 289.187 79.4598 290.161 80.6274 291.439C80.3815 292.839 79.9514 294.177 79.5828 295.516C79.0909 297.342 78.6608 299.168 77.9236 300.933C77.1861 302.636 76.4486 304.401 75.7114 306.105C75.0968 307.505 74.2979 308.844 73.6221 310.182C73.6221 310.061 73.6836 309.939 73.6836 309.756C73.9907 306.592 73.8063 303.428 73.2532 300.324C72.639 296.794 71.5941 293.447 70.1808 290.161C69.5048 288.579 68.5832 286.997 67.9686 285.354C67.4156 283.832 67.0469 282.25 66.4324 280.789C66.3095 280.546 66.0023 280.546 65.8794 280.789C63.1756 286.875 62.7455 293.691 63.36 300.202C63.6671 303.549 64.2817 306.896 65.0807 310.182C65.5107 311.947 66.1253 313.712 66.9855 315.355C67.723 316.816 69.0747 317.789 69.8737 319.189C67.6 323.814 63.9131 327.039 60.1032 330.447C58.1983 332.151 56.2933 333.916 54.4499 335.681C53.4665 336.593 52.4834 337.506 51.5002 338.419C50.4556 339.393 49.4109 340.367 48.3663 341.34C47.9976 341.644 47.6289 342.01 47.2602 342.375C51.4387 337.385 53.8354 331.421 54.5111 324.848C55.4331 315.903 53.7739 307.383 52.1147 298.559C52.0533 298.316 51.6846 298.133 51.5002 298.377C50.0255 300.446 47.9361 301.967 46.277 303.793C44.8022 305.375 43.5732 307.079 42.5286 308.904C40.5622 312.373 39.4561 316.268 39.026 320.163C38.5958 324.24 39.026 328.256 40.1935 332.212C40.8695 334.403 41.6683 336.533 42.2828 338.784C42.8973 340.914 43.0202 343.105 43.8805 345.113C43.8805 345.174 43.819 345.296 43.819 345.357C43.819 345.418 43.8805 345.418 43.8805 345.418C43.819 345.478 43.7576 345.6 43.6347 345.661C41.5454 347.791 39.5176 349.982 37.8584 352.477C35.7077 355.702 33.4341 359.658 33.0039 363.613C32.9425 364.039 33.6184 364.161 33.7413 363.735C33.8028 363.248 33.8642 362.822 33.9871 362.335C35.2161 356.676 38.7802 351.868 42.7129 347.73C44.7408 345.6 46.953 343.775 48.9809 341.705C50.8242 339.819 52.4834 339.697 55.0642 340.184C57.0308 340.61 58.6284 341.705 60.2876 342.74C63.1756 344.505 66.0638 346.33 69.5048 346.574C72.639 346.756 75.7729 346.209 78.7223 345.357C81.6105 344.505 84.437 343.349 86.7722 341.462C86.8952 341.462 87.0181 341.401 87.1408 341.401C87.2638 341.401 87.2638 341.219 87.1408 341.219H87.0796C87.2638 341.097 87.4482 340.975 87.6327 340.793C87.8783 340.61 87.8168 340.245 87.5097 340.184C85.6046 339.88 83.8228 339.88 82.0406 339.271C80.197 338.602 78.3537 337.993 76.5101 337.202C73.6836 335.985 70.8569 334.95 67.7844 334.524C64.7118 334.098 61.8238 334.524 58.9356 335.559C57.3994 336.107 56.4162 336.593 54.9415 337.324C54.9415 337.324 54.1425 337.872 52.7908 338.237C55.3101 335.863 57.8295 333.49 60.4103 331.117C62.7455 332.516 66.248 332.212 68.8291 332.273C72.0244 332.334 75.2198 331.299 77.9851 329.839C81.3646 328.074 83.8228 325.579 85.9735 322.536C87.2023 320.832 88.4928 319.067 89.7219 317.363C91.0122 315.538 92.4869 313.712 93.6545 311.825C93.7775 311.582 93.6545 311.339 93.3474 311.339C93.2859 311.339 93.2244 311.339 93.1629 311.339C93.1629 311.278 93.1629 311.278 93.1015 311.278C93.04 311.278 93.04 311.339 92.9785 311.339C87.2638 311.521 81.1804 314.138 76.4486 317.242C73.8063 319.007 72.0244 321.319 70.2423 323.936C68.6446 326.309 66.7398 329.23 64.036 330.508C62.9914 330.812 61.8238 331.056 60.7177 330.812C60.6562 330.812 60.6562 330.812 60.6562 330.873C60.6562 330.873 60.6562 330.873 60.5947 330.873C61.3937 330.143 62.1924 329.352 62.9914 328.622C65.2648 326.613 67.3541 324.422 68.8906 321.867H68.8291C68.8291 321.867 70.0579 320.224 70.9183 318.641C71.717 316.45 72.5775 314.381 73.0691 312.191C73.1305 312.191 73.192 312.191 73.192 312.13C73.3147 311.825 73.4377 311.582 73.5606 311.278C73.6221 311.156 73.6836 310.974 73.7448 310.852C74.0522 310.122 74.3594 309.513 74.7282 308.844C74.7282 308.904 74.7897 309.026 74.8509 308.965C76.5101 308.053 78.1078 307.14 79.8899 306.653C81.7335 306.166 83.6998 306.044 85.5431 305.862C88.6773 305.557 91.6882 305.01 94.515 303.549C99.9838 300.689 104.04 295.82 107.173 290.648C107.296 290.465 107.235 290.222 106.989 290.161C105.821 289.918 104.716 290.344 103.548 290.526C101.95 290.769 100.353 290.831 98.6935 290.952C95.8667 291.196 93.2244 292.048 90.7665 293.447C88.1854 294.908 85.7891 296.673 83.8228 298.863C82.7167 300.08 81.8562 301.419 80.7501 302.636C80.197 303.245 79.5828 303.793 79.1524 304.462C78.6608 305.253 78.3537 305.983 77.6162 306.592C77.4932 306.653 77.3705 306.714 77.2476 306.774C76.879 307.018 76.5101 307.261 76.1415 307.505C76.08 307.566 76.08 307.627 76.1415 307.687C75.6499 307.992 75.1583 308.296 74.6668 308.6C75.1583 307.687 75.6499 306.835 76.0185 305.862C76.756 304.097 77.5547 302.332 78.2922 300.506C78.9682 298.802 79.3368 296.977 79.8284 295.212C80.197 293.995 80.5659 292.778 80.7501 291.5C80.8116 291.5 80.8116 291.439 80.873 291.439C80.9345 291.378 80.9345 291.256 80.9345 291.196C81.9792 288.7 81.9177 285.84 81.9177 283.224C81.9177 282.676 81.8562 282.067 81.7947 281.52C81.8562 281.58 81.9177 281.58 81.9792 281.52C82.0406 281.337 82.0406 281.154 82.0406 280.972C82.2251 280.668 82.4093 280.363 82.6552 280.12C82.9623 279.816 83.3312 279.633 83.7613 279.572C83.8228 279.572 83.8228 279.511 83.8228 279.511C84.1914 279.694 84.6215 279.816 84.9289 279.877C85.8505 280.181 86.7722 280.363 87.6939 280.546C90.2135 281.094 92.6714 281.763 95.2522 281.641C98.0175 281.52 100.783 280.789 103.302 279.633C105.699 278.598 108.034 277.138 109.754 275.191C109.877 275.008 109.754 274.826 109.57 274.765C105.146 273.608 100.537 272.331 95.9282 272.757C93.4703 273 91.1966 273.913 89.0459 275.069C87.2638 276.043 85.0516 277.016 83.6383 278.477C83.2082 278.659 82.8393 278.781 82.4093 278.964C82.4093 277.26 82.8393 275.373 83.5768 273.791C83.6998 273.548 83.8228 273.365 83.9455 273.183L84.0069 273.121C84.0684 273.121 84.1299 273.121 84.1299 273.061C84.1299 273 84.1299 273 84.1299 272.939C84.3758 272.696 84.56 272.391 84.7444 272.087C84.9901 271.783 85.236 271.478 85.4819 271.174C86.0347 270.505 86.4651 269.714 86.8952 268.923C88.9844 265.271 91.1352 261.681 93.4089 258.09C94.6377 257.664 95.9282 257.664 97.1573 257.36C98.3861 257.056 99.5537 256.508 100.598 255.9C102.995 254.561 105.084 252.735 107.051 250.849C109.201 248.78 111.106 246.406 112.643 243.85C114.117 241.477 115.776 239.104 116.76 236.426C116.883 236.183 116.698 236 116.514 236Z" fill="#2B2B2B"/>
<path d="M163.155 258.942H142.876V259.368L143.798 259.673C144.351 259.855 144.658 260.16 144.843 260.464C144.966 260.768 145.089 261.255 145.089 261.803C145.15 263.446 145.15 265.15 145.15 266.793V278.477C145.15 280.181 145.15 281.824 145.089 283.467C145.089 284.015 144.966 284.441 144.781 284.806C144.597 285.11 144.228 285.414 143.675 285.597L142.938 285.84V286.267H154.306V285.84L153.077 285.475C152.032 285.171 151.479 284.441 151.479 283.345C151.418 281.641 151.418 279.937 151.418 278.173V272.635H155.781C156.395 272.635 156.887 272.757 157.194 273.122C157.501 273.426 157.747 273.791 158.055 274.339L158.976 275.921H159.406V268.679H158.976L158.116 270.262C157.87 270.809 157.563 271.174 157.256 271.479C156.948 271.783 156.457 271.905 155.842 271.905H151.479V265.819C151.479 263.75 151.479 261.803 151.541 259.794H158.3C158.915 259.794 159.468 259.916 159.836 260.281C160.205 260.586 160.512 261.012 160.82 261.498L163.216 265.819H163.646L163.155 258.942Z" fill="#2B2B2B"/>
<path d="M179.069 267.036C177.533 266.184 175.751 265.758 173.723 265.758C171.756 265.758 169.974 266.184 168.377 267.036C166.779 267.888 165.55 269.105 164.628 270.687C163.707 272.27 163.276 274.156 163.276 276.286C163.276 278.416 163.707 280.302 164.567 281.946C165.427 283.528 166.656 284.806 168.192 285.658C169.729 286.51 171.572 286.936 173.723 286.936C175.874 286.936 177.655 286.51 179.253 285.658C180.79 284.806 182.018 283.528 182.817 281.946C183.678 280.363 184.108 278.477 184.108 276.286C184.108 274.095 183.678 272.209 182.756 270.627C181.896 269.044 180.605 267.827 179.069 267.036ZM177.41 282.311C177.164 283.71 176.734 284.684 176.119 285.232C175.505 285.779 174.767 286.084 173.784 286.084C172.801 286.084 172.002 285.779 171.449 285.232C170.835 284.684 170.405 283.71 170.159 282.311C169.913 280.911 169.729 278.964 169.729 276.347C169.729 273.73 169.851 271.722 170.159 270.322C170.466 268.922 170.835 267.949 171.449 267.401C172.064 266.853 172.862 266.549 173.784 266.549C174.767 266.549 175.566 266.793 176.119 267.401C176.734 267.949 177.164 268.922 177.41 270.322C177.655 271.722 177.778 273.73 177.778 276.347C177.778 278.903 177.655 280.911 177.41 282.311Z" fill="#2B2B2B"/>
<path d="M195.784 285.901L195.415 285.779C194.432 285.475 193.94 284.806 193.94 283.771V269.653C195.415 268.436 196.706 267.827 197.935 267.827C199.717 267.827 200.638 268.74 200.638 270.505V283.71C200.638 284.745 200.147 285.414 199.164 285.718L198.611 285.901V286.327H208.504V285.901L208.135 285.779C207.091 285.475 206.538 284.806 206.538 283.771V271.783C206.538 269.714 206.046 268.192 205.063 267.219C204.08 266.245 202.666 265.758 200.823 265.758C199.594 265.758 198.426 266.001 197.197 266.61C195.968 267.158 194.862 267.888 193.879 268.74L193.572 266.245L193.142 265.819L186.014 268.192V268.618L186.628 268.801C187.181 268.922 187.55 269.105 187.734 269.409C187.918 269.714 188.041 270.14 188.041 270.748V283.71C188.041 284.806 187.55 285.475 186.566 285.718L185.952 285.901V286.327H195.784V285.901Z" fill="#2B2B2B"/>
<path d="M214.589 285.84C215.879 286.571 217.354 286.936 219.013 286.936C220.181 286.936 221.225 286.814 222.208 286.449C223.191 286.144 224.052 285.718 224.789 285.232L225.158 286.753L232.286 286.266V285.84L231.917 285.718C231.364 285.597 230.995 285.354 230.811 284.988C230.627 284.623 230.504 284.197 230.504 283.649V263.446L230.688 257.664L230.197 257.299L222.577 259.125V259.49L223.376 259.673C223.929 259.794 224.359 259.977 224.543 260.281C224.728 260.586 224.789 261.011 224.789 261.559V266.975C224.113 266.61 223.314 266.306 222.392 266.123C221.471 265.941 220.549 265.819 219.566 265.819C217.907 265.819 216.371 266.245 214.896 266.975C213.482 267.766 212.315 268.923 211.455 270.566C210.594 272.148 210.164 274.217 210.164 276.59C210.164 279.024 210.533 280.972 211.332 282.493C212.131 284.015 213.298 285.11 214.589 285.84ZM218.091 269.227C219.013 267.706 220.181 266.914 221.532 266.914C222.638 266.914 223.683 267.219 224.728 267.888V284.319C223.745 284.988 222.7 285.354 221.532 285.354C220.119 285.354 218.951 284.684 218.091 283.345C217.231 282.006 216.739 279.694 216.739 276.408C216.616 273.183 217.108 270.748 218.091 269.227Z" fill="#2B2B2B"/>
<path d="M254.53 284.745L254.161 284.441H253.239C252.071 284.441 251.457 283.832 251.457 282.554V273.426C251.457 270.748 250.781 268.74 249.429 267.584C248.077 266.367 246.172 265.758 243.653 265.758C242.117 265.758 240.703 265.941 239.413 266.367C238.122 266.793 237.016 267.34 236.279 268.131C235.48 268.922 235.111 269.835 235.111 270.992C235.111 271.722 235.357 272.33 235.849 272.756C236.34 273.182 236.955 273.426 237.631 273.426C238.43 273.426 239.044 273.182 239.597 272.574C240.15 272.026 240.396 271.174 240.458 269.957L240.519 269.47C240.642 268.436 240.888 267.705 241.256 267.279C241.625 266.853 242.178 266.671 242.854 266.671C243.837 266.671 244.575 267.036 245.005 267.827C245.435 268.618 245.681 269.896 245.681 271.783V275.069C245.066 275.191 244.513 275.252 243.899 275.373C243.345 275.495 242.854 275.556 242.362 275.616C239.474 276.164 237.385 277.016 236.033 278.051C234.681 279.146 234.005 280.363 234.005 281.641C234.005 283.345 234.558 284.684 235.664 285.597C236.771 286.51 238.122 286.936 239.72 286.936C241.134 286.936 242.239 286.631 243.1 286.023C243.96 285.414 244.82 284.623 245.681 283.771C245.927 284.684 246.357 285.475 247.094 286.023C247.831 286.57 248.753 286.875 249.982 286.875C251.15 286.875 252.01 286.692 252.624 286.327C253.423 285.901 253.976 285.414 254.53 284.745ZM245.681 282.798C245.005 283.345 244.452 283.771 243.96 284.015C243.468 284.258 242.977 284.441 242.424 284.441C241.687 284.441 241.011 284.136 240.519 283.589C239.966 283.041 239.72 282.189 239.72 281.033C239.72 279.694 240.089 278.659 240.888 277.868C241.625 277.077 242.67 276.529 243.96 276.164C244.329 276.103 244.636 276.042 244.943 275.982C245.251 275.921 245.496 275.86 245.804 275.799V282.798H245.681Z" fill="#2B2B2B"/>
<path d="M269.216 283.893L268.786 283.467C268.356 283.954 267.864 284.38 267.434 284.623C267.004 284.928 266.451 285.049 265.898 285.049C265.222 285.049 264.669 284.806 264.239 284.319C263.808 283.832 263.563 283.102 263.563 282.128V267.219H268.294V266.367H263.624L263.747 260.586H263.317L259.876 264.359C259.261 264.967 258.647 265.454 258.032 265.819C257.418 266.184 256.681 266.428 255.82 266.671L254.837 266.854V267.28H257.725V281.459C257.725 283.406 258.217 284.806 259.2 285.658C260.183 286.51 261.596 286.997 263.378 286.997C264.792 286.997 265.959 286.692 266.942 286.145C267.864 285.536 268.663 284.806 269.216 283.893Z" fill="#2B2B2B"/>
<path d="M275.544 263.567C276.466 263.567 277.264 263.263 277.94 262.655C278.555 262.046 278.924 261.316 278.924 260.403C278.924 259.49 278.616 258.699 277.94 258.151C277.326 257.604 276.527 257.299 275.544 257.299C274.622 257.299 273.823 257.604 273.147 258.151C272.471 258.76 272.164 259.49 272.164 260.403C272.164 261.316 272.471 262.046 273.147 262.655C273.762 263.324 274.561 263.567 275.544 263.567Z" fill="#2B2B2B"/>
<path d="M280.399 285.901L279.969 285.779C279.416 285.597 279.047 285.353 278.863 285.049C278.678 284.745 278.555 284.258 278.555 283.71V272.087L278.678 266.184L278.248 265.758L270.567 268.192V268.618L271.181 268.74C271.734 268.862 272.103 269.044 272.349 269.348C272.533 269.653 272.656 270.079 272.656 270.627V283.589C272.656 284.136 272.533 284.562 272.349 284.927C272.164 285.293 271.734 285.536 271.181 285.658L270.567 285.84V286.266H280.399V285.901Z" fill="#2B2B2B"/>
<path d="M298.281 285.597C299.818 284.745 301.047 283.467 301.847 281.885C302.705 280.302 303.135 278.416 303.135 276.225C303.135 274.034 302.705 272.148 301.785 270.565C300.863 268.983 299.633 267.766 298.096 266.914C296.5 266.062 294.779 265.636 292.75 265.636C290.724 265.636 289.003 266.062 287.405 266.914C285.807 267.766 284.578 268.983 283.656 270.565C282.735 272.148 282.305 274.034 282.305 276.164C282.305 278.294 282.735 280.181 283.595 281.824C284.455 283.406 285.684 284.684 287.22 285.536C288.757 286.388 290.601 286.814 292.75 286.814C294.902 286.936 296.746 286.51 298.281 285.597ZM290.417 285.232C289.802 284.684 289.371 283.71 289.125 282.311C288.88 280.911 288.695 278.964 288.695 276.347C288.695 273.73 288.818 271.722 289.125 270.322C289.433 268.922 289.802 267.949 290.417 267.401C291.031 266.853 291.828 266.549 292.75 266.549C293.672 266.549 294.533 266.793 295.086 267.401C295.701 267.949 296.132 268.922 296.378 270.322C296.623 271.722 296.808 273.73 296.808 276.347C296.808 278.903 296.685 280.911 296.378 282.311C296.132 283.71 295.701 284.684 295.086 285.232C294.472 285.779 293.734 286.084 292.75 286.084C291.828 286.084 291.031 285.84 290.417 285.232Z" fill="#2B2B2B"/>
<path d="M318.254 285.718L317.7 285.901V286.327H327.593V285.901L327.225 285.779C326.179 285.475 325.626 284.806 325.626 283.771V271.783C325.626 269.714 325.134 268.192 324.153 267.219C323.17 266.245 321.755 265.758 319.911 265.758C318.684 265.758 317.516 266.001 316.286 266.61C315.057 267.158 313.95 267.888 312.969 268.74L312.662 266.245L312.231 265.819L305.102 268.192V268.618L305.717 268.801C306.27 268.922 306.639 269.105 306.824 269.409C307.008 269.714 307.131 270.14 307.131 270.748V283.71C307.131 284.806 306.639 285.475 305.656 285.718L305.041 285.901V286.327H314.872V285.901L314.503 285.779C313.522 285.475 313.031 284.806 313.031 283.771V269.653C314.503 268.436 315.795 267.827 317.024 267.827C318.807 267.827 319.727 268.74 319.727 270.505V283.71C319.665 284.745 319.235 285.414 318.254 285.718Z" fill="#2B2B2B"/>
<path d="M353.34 286.753L360.469 286.266V285.84L360.1 285.718C359.547 285.597 359.178 285.354 358.994 284.988C358.809 284.623 358.686 284.197 358.686 283.649V263.446L358.871 257.664L358.379 257.299L350.761 259.125V259.49L351.56 259.673C352.172 259.794 352.541 259.977 352.725 260.281C352.91 260.586 352.971 261.011 352.971 261.559V266.975C352.295 266.61 351.499 266.306 350.576 266.123C349.654 265.941 348.732 265.819 347.748 265.819C346.091 265.819 344.554 266.245 343.078 266.975C341.664 267.766 340.499 268.923 339.638 270.566C338.777 272.209 338.347 274.217 338.347 276.59C338.347 279.024 338.716 280.972 339.515 282.493C340.314 284.015 341.298 285.171 342.648 285.901C343.939 286.631 345.415 286.997 347.072 286.997C348.24 286.997 349.285 286.875 350.269 286.51C351.253 286.205 352.113 285.78 352.848 285.293L353.34 286.753ZM352.848 284.319C351.867 284.988 350.822 285.354 349.654 285.354C348.24 285.354 347.072 284.684 346.152 283.345C345.23 282.006 344.8 279.694 344.8 276.408C344.8 273.121 345.292 270.687 346.214 269.166C347.133 267.645 348.302 266.853 349.654 266.853C350.761 266.853 351.806 267.158 352.848 267.827V284.319Z" fill="#2B2B2B"/>
<path d="M381.3 282.067L380.87 281.702C380.132 282.554 379.333 283.224 378.411 283.65C377.55 284.076 376.446 284.319 375.032 284.319C372.942 284.319 371.407 283.65 370.362 282.372C369.317 281.094 368.764 278.903 368.764 275.921H381.239C381.3 275.678 381.362 275.373 381.423 275.069C381.485 274.765 381.485 274.461 381.485 274.156C381.485 272.574 381.116 271.114 380.44 269.896C379.763 268.619 378.78 267.645 377.489 266.915C376.2 266.184 374.663 265.819 372.819 265.819C371.1 265.819 369.44 266.245 367.842 267.036C366.246 267.888 364.955 269.105 363.971 270.688C362.987 272.27 362.434 274.278 362.434 276.469C362.434 278.66 362.864 280.546 363.725 282.128C364.586 283.711 365.754 284.928 367.288 285.78C368.825 286.632 370.547 287.058 372.573 287.058C374.602 287.058 376.323 286.632 377.735 285.78C379.272 284.745 380.44 283.589 381.3 282.067ZM369.317 269.836C369.624 268.619 370.055 267.767 370.67 267.28C371.223 266.793 371.899 266.55 372.757 266.55C374.171 266.55 375.155 267.219 375.647 268.558C376.139 269.896 376.262 272.026 375.954 275.069H368.825C368.764 272.818 368.948 271.114 369.317 269.836Z" fill="#2B2B2B"/>
<path d="M389.41 278.477L391.193 279.024C392.789 279.511 393.896 279.998 394.449 280.607C395.064 281.215 395.31 281.946 395.31 282.858C395.31 283.832 394.88 284.623 394.08 285.232C393.281 285.84 392.177 286.144 390.824 286.144C389.656 286.144 388.734 285.84 387.996 285.353C387.259 284.867 386.585 284.015 385.97 282.919L384.556 280.424H384.126L384.064 285.353C384.987 285.84 385.97 286.205 387.074 286.51C388.181 286.814 389.41 286.996 390.763 286.996C393.65 286.996 395.925 286.388 397.523 285.171C399.119 283.954 399.918 282.311 399.918 280.302C399.918 278.781 399.488 277.564 398.627 276.469C397.766 275.373 396.355 274.582 394.326 273.973L392.42 273.426C391.009 272.939 389.964 272.452 389.287 271.904C388.55 271.357 388.242 270.627 388.242 269.653C388.242 268.679 388.673 267.949 389.472 267.401C390.271 266.853 391.193 266.61 392.177 266.61C393.22 266.61 393.957 266.793 394.511 267.158C395.002 267.523 395.556 268.192 396.048 269.105L397.523 271.661H397.951L398.197 267.158C397.277 266.671 396.355 266.367 395.433 266.123C394.449 265.88 393.465 265.758 392.359 265.758C389.656 265.758 387.566 266.367 386.155 267.645C384.679 268.922 384.003 270.444 384.003 272.27C384.003 273.791 384.495 275.069 385.478 276.103C386.339 277.199 387.689 277.99 389.41 278.477Z" fill="#2B2B2B"/>
<path d="M428.985 285.719C430.276 284.928 431.383 283.711 432.182 282.128C432.978 280.546 433.347 278.538 433.347 276.165C433.347 273.791 432.978 271.783 432.305 270.262C431.629 268.74 430.645 267.584 429.415 266.854C428.186 266.124 426.774 265.758 425.176 265.758C424.069 265.758 422.963 265.941 421.859 266.245C420.752 266.55 419.768 267.037 418.846 267.645V263.446L419.03 257.604L418.539 257.239L411.105 259.004V259.429L411.717 259.612C412.27 259.734 412.639 259.916 412.824 260.221C413.008 260.525 413.07 260.951 413.07 261.56V283.711C413.07 284.867 412.516 285.536 411.41 285.78L410.982 285.841V286.267L418.047 286.814L418.723 285.293C419.522 285.78 420.445 286.206 421.49 286.449C422.532 286.692 423.577 286.875 424.623 286.875C426.221 286.936 427.694 286.51 428.985 285.719ZM422.532 285.475C421.797 285.475 421.182 285.415 420.629 285.232C420.076 285.049 419.522 284.806 418.969 284.441V268.558C420.076 267.827 421.305 267.462 422.594 267.462C423.516 267.462 424.315 267.706 424.93 268.193C425.545 268.68 426.098 269.592 426.467 270.87C426.836 272.148 427.02 273.974 427.02 276.286C427.02 278.599 426.836 280.485 426.405 281.824C426.037 283.163 425.483 284.137 424.807 284.685C424.192 285.232 423.393 285.475 422.532 285.475Z" fill="#2B2B2B"/>
<path d="M440.476 285.597C442.013 286.449 443.855 286.875 446.007 286.875C448.156 286.875 449.939 286.449 451.538 285.597C453.075 284.745 454.301 283.467 455.101 281.885C455.961 280.302 456.392 278.416 456.392 276.225C456.392 274.034 455.961 272.148 455.039 270.565C454.117 268.983 452.89 267.766 451.353 266.914C449.816 266.062 448.036 265.636 446.068 265.636C444.101 265.636 442.321 266.062 440.722 266.914C439.124 267.766 437.894 268.983 436.975 270.565C436.053 272.148 435.622 274.034 435.622 276.164C435.622 278.294 436.053 280.181 436.913 281.824C437.71 283.528 438.939 284.745 440.476 285.597ZM442.382 270.322C442.628 268.922 443.056 267.949 443.671 267.401C444.286 266.853 445.085 266.549 446.007 266.549C446.929 266.549 447.79 266.793 448.341 267.401C448.955 267.949 449.324 268.922 449.632 270.322C449.939 271.722 450.062 273.73 450.062 276.347C450.062 278.903 449.939 280.911 449.632 282.311C449.324 283.71 448.955 284.684 448.341 285.232C447.728 285.779 446.991 286.084 446.007 286.084C445.023 286.084 444.224 285.779 443.671 285.232C443.056 284.684 442.628 283.71 442.382 282.311C442.136 280.911 441.952 278.964 441.952 276.347C441.952 273.791 442.075 271.783 442.382 270.322Z" fill="#2B2B2B"/>
<path d="M472.427 284.259L472.796 286.693L480.11 286.267V285.841L479.679 285.719C479.126 285.476 478.757 285.232 478.573 284.867C478.388 284.563 478.327 284.076 478.327 283.467V272.331L478.45 266.428L478.019 266.002L470.709 267.584V268.01L471.139 268.132C471.69 268.254 472.058 268.436 472.243 268.68C472.427 268.923 472.55 269.41 472.55 270.018L472.366 283.528C471.751 283.954 471.139 284.32 470.524 284.502C469.909 284.746 469.233 284.806 468.434 284.806C467.635 284.806 467.02 284.624 466.466 284.198C465.916 283.772 465.67 283.102 465.67 282.25V272.331L465.854 266.428L465.424 266.002L457.926 267.462V267.889L458.418 268.071C458.91 268.193 459.217 268.375 459.463 268.68C459.709 268.984 459.77 269.41 459.77 270.018L459.648 280.668C459.648 282.19 459.832 283.407 460.385 284.32C460.877 285.232 461.612 285.902 462.534 286.328C463.457 286.754 464.44 286.936 465.547 286.936C467.02 286.936 468.249 286.693 469.356 286.145C470.463 285.597 471.508 285.05 472.427 284.259Z" fill="#2B2B2B"/>
<path d="M498.115 270.992C498.669 270.505 498.915 269.775 498.915 268.801C498.915 267.888 498.607 267.158 498.054 266.61C497.501 266.001 496.704 265.758 495.597 265.758C494.86 265.758 494.06 265.941 493.323 266.367C492.585 266.793 491.85 267.279 491.235 267.949C490.62 268.618 490.128 269.288 489.698 270.079V269.775L489.329 266.245L488.899 265.819L481.708 268.192V268.618L482.323 268.801C482.876 268.922 483.245 269.105 483.491 269.409C483.676 269.714 483.799 270.14 483.799 270.748V283.71C483.799 284.258 483.676 284.684 483.491 284.988C483.307 285.353 482.876 285.597 482.323 285.718L481.708 285.901V286.266H492.523V285.84L491.174 285.475C490.19 285.171 489.698 284.501 489.698 283.406V271.844C489.882 271.418 490.067 270.992 490.19 270.687C490.374 270.322 490.62 270.079 490.866 269.775C491.174 269.409 491.481 269.227 491.85 269.288C492.216 269.348 492.523 269.531 492.831 269.957L492.892 270.018C493.815 271.174 494.798 271.783 495.966 271.783C496.95 271.722 497.562 271.478 498.115 270.992Z" fill="#2B2B2B"/>
<path d="M510.588 273.913L508.685 273.365C507.271 272.878 506.225 272.392 505.549 271.844C504.814 271.296 504.507 270.566 504.507 269.592C504.507 268.619 504.937 267.888 505.734 267.341C506.533 266.793 507.455 266.55 508.439 266.55C509.484 266.55 510.222 266.732 510.772 267.097C511.264 267.462 511.817 268.132 512.309 269.044L513.785 271.601H514.215L514.461 267.097C513.539 266.61 512.617 266.306 511.695 266.063C510.711 265.819 509.73 265.698 508.623 265.698C505.918 265.698 503.83 266.306 502.416 267.584C500.941 268.862 500.265 270.383 500.265 272.209C500.265 273.73 500.756 275.008 501.74 276.043C502.724 277.077 504.076 277.869 505.734 278.355L507.517 278.903C509.115 279.39 510.222 279.877 510.772 280.485C511.387 281.094 511.633 281.824 511.633 282.737C511.633 283.711 511.203 284.502 510.406 285.11C509.607 285.719 508.5 286.023 507.148 286.023C505.98 286.023 505.06 285.719 504.322 285.232C503.584 284.745 502.908 283.893 502.293 282.798L500.879 280.303H500.388L500.326 285.232C501.248 285.719 502.232 286.084 503.339 286.388C504.445 286.692 505.672 286.875 507.025 286.875C509.914 286.875 512.186 286.267 513.785 285.049C515.383 283.832 516.18 282.189 516.18 280.181C516.18 278.66 515.752 277.443 514.891 276.347C514.031 275.373 512.617 274.521 510.588 273.913Z" fill="#2B2B2B"/>
<path d="M523.125 285.658C524.659 286.51 526.38 286.936 528.409 286.936C530.435 286.936 532.157 286.51 533.571 285.658C534.982 284.806 536.15 283.649 537.011 282.128L536.581 281.763C535.843 282.615 535.044 283.284 534.124 283.71C533.263 284.136 532.157 284.38 530.743 284.38C528.655 284.38 527.118 283.71 526.073 282.432C525.028 281.154 524.474 278.964 524.474 275.982H536.95C537.011 275.738 537.072 275.434 537.134 275.13C537.195 274.825 537.195 274.521 537.195 274.217C537.195 272.635 536.827 271.174 536.15 269.957C535.474 268.679 534.493 267.705 533.202 266.975C531.911 266.245 530.374 265.88 528.532 265.88C526.811 265.88 525.151 266.306 523.555 267.097C521.956 267.949 520.665 269.166 519.682 270.748C518.701 272.33 518.147 274.339 518.147 276.529C518.147 278.72 518.578 280.607 519.436 282.189C520.358 283.589 521.588 284.806 523.125 285.658ZM525.028 269.835C525.335 268.618 525.765 267.766 526.38 267.279C526.934 266.793 527.61 266.549 528.471 266.549C529.882 266.549 530.866 267.219 531.358 268.557C531.849 269.896 531.972 272.026 531.665 275.069H524.536C524.536 272.817 524.72 271.113 525.028 269.835Z" fill="#2B2B2B"/>
<path d="M545.124 278.477L546.907 279.024C548.505 279.511 549.612 279.998 550.165 280.607C550.777 281.215 551.023 281.946 551.023 282.858C551.023 283.832 550.593 284.623 549.796 285.232C548.997 285.84 547.89 286.144 546.538 286.144C545.37 286.144 544.45 285.84 543.712 285.353C542.975 284.867 542.298 284.015 541.684 282.919L540.269 280.424H539.839L539.778 285.353C540.7 285.84 541.684 286.205 542.79 286.51C543.897 286.814 545.124 286.996 546.476 286.996C549.366 286.996 551.638 286.388 553.236 285.171C554.835 283.954 555.632 282.311 555.632 280.302C555.632 278.781 555.204 277.564 554.343 276.469C553.482 275.373 552.068 274.582 550.042 273.973L548.136 273.426C546.722 272.939 545.677 272.452 545.001 271.904C544.266 271.357 543.958 270.627 543.958 269.653C543.958 268.679 544.389 267.949 545.185 267.401C545.984 266.853 546.907 266.61 547.89 266.61C548.936 266.61 549.673 266.793 550.224 267.158C550.716 267.523 551.269 268.192 551.761 269.105L553.236 271.661H553.667L553.913 267.158C552.991 266.671 552.068 266.367 551.146 266.123C550.162 265.88 549.181 265.758 548.075 265.758C545.37 265.758 543.282 266.367 541.868 267.645C540.392 268.922 539.716 270.444 539.716 272.27C539.716 273.791 540.208 275.069 541.192 276.103C542.052 277.199 543.405 277.99 545.124 278.477Z" fill="#2B2B2B"/>
<path d="M157.932 313.712C156.641 312.982 155.105 312.617 153.261 312.617C151.541 312.617 149.882 313.043 148.284 313.834C146.686 314.686 145.396 315.903 144.413 317.485C143.429 319.067 142.876 321.075 142.876 323.266C142.876 325.457 143.306 327.343 144.167 328.926C145.027 330.508 146.256 331.725 147.792 332.577C149.329 333.429 151.049 333.855 153.077 333.855C155.105 333.855 156.825 333.429 158.239 332.577C159.652 331.725 160.82 330.508 161.68 328.986L161.25 328.622C160.512 329.473 159.714 330.143 158.792 330.569C157.932 330.995 156.825 331.238 155.412 331.238C153.323 331.238 151.787 330.569 150.742 329.291C149.697 328.013 149.144 325.822 149.144 322.84H161.618C161.68 322.597 161.741 322.292 161.803 321.988C161.864 321.684 161.864 321.38 161.864 321.075C161.864 319.493 161.496 318.033 160.82 316.815C160.205 315.416 159.222 314.442 157.932 313.712ZM156.395 321.927H149.267C149.267 319.676 149.452 317.972 149.82 316.755C150.128 315.538 150.558 314.686 151.172 314.199C151.725 313.712 152.401 313.468 153.261 313.468C154.675 313.468 155.658 314.138 156.149 315.477C156.641 316.815 156.702 318.885 156.395 321.927Z" fill="#2B2B2B"/>
<path d="M176.059 331.482C175.629 331.786 175.076 331.908 174.523 331.908C173.847 331.908 173.294 331.665 172.864 331.178C172.434 330.691 172.188 329.96 172.188 328.987V314.077H176.92V313.225H172.249L172.372 307.444H171.942L168.501 311.217C167.887 311.826 167.272 312.312 166.657 312.678C166.043 313.043 165.305 313.286 164.445 313.53L163.462 313.712V314.138H166.35V328.317C166.35 330.265 166.842 331.665 167.825 332.516C168.808 333.368 170.221 333.855 172.004 333.855C173.417 333.855 174.584 333.612 175.568 333.003C176.551 332.456 177.288 331.725 177.841 330.752L177.411 330.326C176.981 330.813 176.489 331.178 176.059 331.482Z" fill="#2B2B2B"/>
<path d="M202.727 312.617C201.498 312.617 200.392 312.738 199.224 313.103C198.118 313.408 197.074 313.834 196.152 314.381L195.783 313.103L195.353 312.677L188.225 315.112V315.538L188.84 315.659C189.393 315.781 189.761 315.963 190.007 316.268C190.191 316.572 190.314 316.998 190.314 317.607V340.123C190.314 341.157 189.823 341.827 188.778 342.131L188.225 342.253V342.679H198.364V342.253L197.565 342.07C196.582 341.827 196.029 341.097 196.029 340.001V332.82C197.565 333.49 199.409 333.794 201.559 333.794C204.386 333.794 206.537 332.82 208.135 330.934C209.671 329.047 210.47 326.491 210.47 323.083C210.47 319.737 209.794 317.12 208.38 315.294C207.029 313.529 205.123 312.617 202.727 312.617ZM202.973 330.386C202.174 331.847 201.068 332.516 199.655 332.516C198.426 332.516 197.258 332.273 196.213 331.847V315.172C197.442 314.503 198.61 314.199 199.655 314.199C201.129 314.199 202.236 314.868 203.034 316.207C203.833 317.546 204.202 319.858 204.202 323.205C204.202 326.552 203.772 328.986 202.973 330.386Z" fill="#2B2B2B"/>
<path d="M226.324 312.617C225.587 312.617 224.788 312.799 224.051 313.225C223.313 313.651 222.576 314.138 221.962 314.807C221.347 315.477 220.794 316.146 220.425 316.937V316.633L220.057 313.043L219.626 312.617L212.437 315.051V315.477L213.051 315.659C213.604 315.781 213.973 315.963 214.219 316.268C214.403 316.572 214.526 316.998 214.526 317.607V330.569C214.526 331.116 214.403 331.542 214.219 331.847C214.034 332.212 213.604 332.455 213.051 332.577L212.437 332.76V333.125H223.252V332.699L221.9 332.334C220.917 332.09 220.425 331.36 220.425 330.265V318.702C220.61 318.276 220.733 317.85 220.917 317.546C221.101 317.181 221.347 316.937 221.593 316.633C221.9 316.268 222.207 316.085 222.576 316.146C222.945 316.207 223.252 316.389 223.559 316.815L223.621 316.876C224.542 318.032 225.526 318.641 226.693 318.641C227.43 318.641 228.106 318.398 228.659 317.85C229.213 317.363 229.458 316.633 229.458 315.659C229.458 314.746 229.151 314.016 228.598 313.468C228.168 312.86 227.369 312.617 226.324 312.617Z" fill="#2B2B2B"/>
<path d="M246.48 310.548L247.033 310.061L241.073 302.028H240.458L234.559 310.061L235.112 310.548L240.765 306.166L246.48 310.548Z" fill="#2B2B2B"/>
<path d="M245.312 313.712C244.021 312.982 242.485 312.617 240.642 312.617C238.921 312.617 237.262 313.043 235.664 313.834C234.066 314.686 232.776 315.903 231.793 317.485C230.81 319.067 230.257 321.075 230.257 323.266C230.257 325.457 230.687 327.343 231.547 328.926C232.407 330.508 233.575 331.725 235.111 332.577C236.648 333.429 238.368 333.855 240.396 333.855C242.424 333.855 244.144 333.429 245.558 332.577C246.971 331.725 248.139 330.508 248.999 328.986L248.569 328.622C247.831 329.473 247.032 330.143 246.111 330.569C245.25 330.995 244.144 331.238 242.731 331.238C240.642 331.238 239.105 330.569 238.061 329.291C237.016 328.013 236.463 325.822 236.463 322.84H248.937C248.999 322.597 249.06 322.292 249.122 321.988C249.122 321.684 249.183 321.38 249.183 321.075C249.183 319.493 248.815 318.033 248.139 316.815C247.585 315.416 246.602 314.442 245.312 313.712ZM243.776 321.927H236.648C236.648 319.676 236.832 317.972 237.201 316.755C237.508 315.538 237.938 314.686 238.552 314.199C239.105 313.712 239.781 313.468 240.642 313.468C242.055 313.468 243.038 314.138 243.53 315.477C244.021 316.815 244.083 318.885 243.776 321.927Z" fill="#2B2B2B"/>
<path d="M263.44 331.482C263.009 331.786 262.456 331.908 261.903 331.908C261.227 331.908 260.674 331.665 260.244 331.178C259.814 330.691 259.568 329.96 259.568 328.987V314.077H264.3V313.225H259.63L259.753 307.444H259.322L255.881 311.217C255.267 311.826 254.652 312.312 254.038 312.678C253.423 313.043 252.686 313.286 251.825 313.53L250.842 313.712V314.138H253.731V328.317C253.731 330.265 254.222 331.665 255.205 332.516C256.188 333.368 257.602 333.855 259.384 333.855C260.797 333.855 261.965 333.612 262.948 333.003C263.931 332.456 264.668 331.725 265.221 330.752L264.791 330.326C264.361 330.813 263.87 331.178 263.44 331.482Z" fill="#2B2B2B"/>
<path d="M277.51 320.771L275.605 320.224C274.192 319.737 273.147 319.25 272.471 318.702C271.734 318.155 271.426 317.424 271.426 316.451C271.426 315.477 271.857 314.747 272.655 314.199C273.516 313.651 274.376 313.408 275.359 313.408C276.404 313.408 277.141 313.591 277.694 313.956C278.186 314.321 278.739 314.99 279.23 315.903L280.705 318.459H281.135L281.381 313.956C280.459 313.469 279.538 313.165 278.616 312.921C277.633 312.678 276.65 312.556 275.543 312.556C272.84 312.556 270.75 313.165 269.337 314.443C267.862 315.72 267.186 317.242 267.186 319.068C267.186 320.589 267.678 321.867 268.661 322.901C269.644 323.936 270.996 324.727 272.655 325.214L274.437 325.762C276.035 326.248 277.141 326.735 277.694 327.344C278.309 327.952 278.555 328.683 278.555 329.596C278.555 330.569 278.125 331.36 277.326 331.969C276.527 332.577 275.421 332.882 274.069 332.882C272.901 332.882 271.979 332.577 271.242 332.091C270.505 331.543 269.829 330.752 269.214 329.656L267.801 327.161H267.371L267.309 332.091C268.231 332.577 269.214 332.942 270.32 333.247C271.426 333.551 272.655 333.734 274.007 333.734C276.895 333.734 279.169 333.125 280.767 331.908C282.365 330.691 283.163 329.048 283.163 327.039C283.163 325.579 282.733 324.301 281.873 323.206C280.951 322.232 279.538 321.38 277.51 320.771Z" fill="#2B2B2B"/>
<path d="M314.811 331.908C314.626 331.542 314.503 331.116 314.503 330.569V310.304L314.688 304.523L314.196 304.158L306.578 305.983V306.409L307.377 306.592C307.989 306.714 308.358 306.896 308.543 307.14C308.727 307.444 308.788 307.87 308.788 308.417V313.834C308.112 313.468 307.316 313.164 306.393 312.982C305.471 312.799 304.549 312.677 303.565 312.677C301.908 312.677 300.371 313.103 298.896 313.834C297.481 314.625 296.316 315.781 295.455 317.424C294.595 319.067 294.164 321.014 294.164 323.449C294.164 325.883 294.533 327.83 295.332 329.352C296.07 330.873 297.113 332.029 298.465 332.76C299.756 333.49 301.232 333.855 302.889 333.855C304.057 333.855 305.102 333.733 306.086 333.368C307.07 333.064 307.928 332.638 308.666 332.151L309.034 333.673L316.163 333.186V332.76L315.795 332.638C315.364 332.516 314.995 332.273 314.811 331.908ZM308.604 331.178C307.623 331.847 306.578 332.212 305.41 332.212C303.996 332.212 302.828 331.542 301.908 330.204C300.986 328.865 300.555 326.552 300.555 323.266C300.555 319.98 301.047 317.546 301.97 316.025C302.889 314.503 304.057 313.712 305.41 313.712C306.516 313.712 307.562 314.016 308.604 314.686V331.178Z" fill="#2B2B2B"/>
<path d="M320.895 302.879C320.037 302.879 319.299 303.123 318.684 303.671C318.069 304.218 317.762 304.949 317.762 305.801C317.762 306.653 318.069 307.322 318.561 307.93C319.114 308.539 319.852 308.965 320.833 309.148L321.694 309.33C321.51 310.365 321.202 311.217 320.71 311.886C320.283 312.556 319.729 313.164 319.176 313.59L319.422 314.077C320.772 313.407 321.94 312.434 322.862 311.095C323.784 309.756 324.215 308.296 324.215 306.774C324.215 305.557 323.907 304.644 323.292 303.914C322.739 303.245 321.878 302.879 320.895 302.879Z" fill="#2B2B2B"/>
<path d="M347.379 331.847C347.133 331.543 347.072 331.056 347.072 330.508V318.824C347.072 316.694 346.519 315.112 345.473 314.077C344.428 313.043 342.953 312.556 341.172 312.556C339.82 312.556 338.59 312.86 337.422 313.408C336.318 313.956 335.273 314.625 334.289 315.477V310.304L334.474 304.462L333.798 304.097L326.425 305.862V306.288L327.037 306.471C327.591 306.592 327.96 306.836 328.144 307.079C328.328 307.322 328.451 307.809 328.451 308.357V330.447C328.451 331.482 327.96 332.212 326.914 332.516L326.425 332.699V333.125H336.195V332.699L335.888 332.638C334.904 332.334 334.351 331.665 334.351 330.569V316.147C335.089 315.538 335.826 315.173 336.564 314.929C337.299 314.686 337.976 314.564 338.59 314.564C339.513 314.564 340.189 314.747 340.558 315.173C340.927 315.599 341.111 316.329 341.111 317.424V330.447C341.111 331.543 340.619 332.212 339.574 332.577L339.082 332.699V333.125H348.852V332.699L348.545 332.577C347.991 332.456 347.625 332.212 347.379 331.847Z" fill="#2B2B2B"/>
<path d="M366.427 313.894C364.832 313.043 363.11 312.617 361.081 312.617C359.055 312.617 357.334 313.043 355.735 313.894C354.139 314.746 352.91 315.963 351.988 317.546C351.065 319.128 350.635 321.014 350.635 323.145C350.635 325.274 351.065 327.161 351.926 328.804C352.787 330.386 354.017 331.664 355.551 332.516C357.088 333.368 358.932 333.794 361.081 333.794C363.233 333.794 365.016 333.368 366.612 332.516C368.149 331.664 369.379 330.386 370.178 328.804C371.039 327.222 371.466 325.335 371.466 323.145C371.466 320.954 371.039 319.067 370.116 317.485C369.194 315.903 367.964 314.686 366.427 313.894ZM364.709 329.169C364.463 330.569 364.032 331.542 363.418 332.09C362.803 332.638 362.065 332.942 361.081 332.942C360.1 332.942 359.301 332.638 358.748 332.09C358.133 331.542 357.703 330.569 357.457 329.169C357.211 327.769 357.026 325.822 357.026 323.205C357.026 320.589 357.149 318.58 357.457 317.181C357.764 315.781 358.133 314.807 358.748 314.26C359.363 313.712 360.162 313.408 361.081 313.408C362.004 313.408 362.864 313.651 363.418 314.26C364.032 314.807 364.463 315.781 364.709 317.181C364.955 318.58 365.139 320.649 365.139 323.205C365.139 325.761 365.016 327.769 364.709 329.169Z" fill="#2B2B2B"/>
<path d="M393.898 330.569V318.642C393.898 316.572 393.407 315.051 392.423 314.077C391.439 313.104 390.025 312.556 388.183 312.556C386.954 312.556 385.786 312.86 384.556 313.408C383.329 313.956 382.223 314.686 381.239 315.538L380.931 313.043L380.501 312.617L373.372 315.051V315.477L373.987 315.66C374.54 315.781 374.909 315.964 375.094 316.268C375.278 316.573 375.401 316.999 375.401 317.607V330.569C375.401 331.665 374.909 332.334 373.925 332.577L373.311 332.76V333.186H383.145V332.76L382.776 332.638C381.792 332.334 381.3 331.665 381.3 330.63V316.573C382.776 315.355 384.064 314.747 385.294 314.747C387.077 314.747 387.999 315.66 387.999 317.424V330.63C387.999 331.665 387.507 332.334 386.524 332.638L385.97 332.821V333.247H395.863V332.821L395.494 332.699C394.449 332.334 393.898 331.665 393.898 330.569Z" fill="#2B2B2B"/>
<path d="M418.044 330.569V318.642C418.044 316.572 417.555 315.051 416.571 314.077C415.588 313.104 414.174 312.556 412.332 312.556C411.102 312.556 409.934 312.86 408.705 313.408C407.475 313.956 406.371 314.686 405.387 315.538L405.08 313.043L404.65 312.617L397.52 315.051V315.477L398.135 315.66C398.689 315.781 399.057 315.964 399.242 316.268C399.426 316.573 399.549 316.999 399.549 317.607V330.569C399.549 331.665 399.057 332.334 398.074 332.577L397.459 332.76V333.186H407.293V332.76L406.924 332.638C405.941 332.334 405.449 331.665 405.449 330.63V316.573C406.924 315.355 408.213 314.747 409.442 314.747C411.225 314.747 412.147 315.66 412.147 317.424V330.63C412.147 331.665 411.656 332.334 410.672 332.638L410.119 332.821V333.247H420.012V332.821L419.643 332.699C418.597 332.334 418.044 331.665 418.044 330.569Z" fill="#2B2B2B"/>
<path d="M436.849 313.712C435.558 312.982 434.021 312.617 432.179 312.617C430.458 312.617 428.798 313.043 427.202 313.834C425.604 314.686 424.312 315.903 423.329 317.485C422.348 319.067 421.794 321.075 421.794 323.266C421.794 325.457 422.225 327.343 423.086 328.926C423.944 330.508 425.112 331.725 426.649 332.577C428.186 333.429 429.904 333.855 431.933 333.855C433.959 333.855 435.681 333.429 437.095 332.577C438.509 331.725 439.674 330.508 440.535 328.986L440.105 328.622C439.367 329.473 438.571 330.143 437.648 330.569C436.788 330.995 435.681 331.238 434.267 331.238C432.179 331.238 430.642 330.569 429.597 329.291C428.552 328.013 428.001 325.822 428.001 322.84H440.474C440.535 322.597 440.597 322.292 440.658 321.988C440.658 321.684 440.72 321.38 440.72 321.075C440.72 319.493 440.351 318.033 439.675 316.815C439.062 315.416 438.079 314.442 436.849 313.712ZM435.251 321.927H428.124C428.124 319.676 428.309 317.972 428.613 316.755C428.921 315.538 429.351 314.686 429.966 314.199C430.519 313.712 431.196 313.468 432.056 313.468C433.47 313.468 434.451 314.138 434.943 315.477C435.435 316.755 435.558 318.885 435.251 321.927Z" fill="#2B2B2B"/>
<path d="M463.398 331.786C463.213 331.482 463.152 330.995 463.152 330.386V319.128L463.275 313.225L462.845 312.799L455.531 314.381V314.807L455.961 314.929C456.515 315.051 456.884 315.233 457.068 315.477C457.252 315.72 457.375 316.207 457.375 316.815L457.191 330.325C456.576 330.751 455.961 331.116 455.347 331.299C454.732 331.542 454.058 331.603 453.259 331.603C452.46 331.603 451.845 331.421 451.292 330.995C450.8 330.569 450.492 329.899 450.492 329.047V319.067L450.677 313.164L450.246 312.738L442.751 314.199V314.625L443.243 314.807C443.735 314.929 444.04 315.112 444.285 315.416C444.531 315.72 444.593 316.146 444.593 316.755L444.47 327.404C444.47 328.926 444.654 330.143 445.208 331.056C445.7 331.968 446.437 332.638 447.36 333.064C448.282 333.49 449.263 333.672 450.369 333.672C451.845 333.672 453.075 333.429 454.181 332.881C455.285 332.394 456.269 331.725 457.191 330.995L457.56 333.429L464.873 333.003V332.577L464.443 332.455C463.951 332.394 463.582 332.151 463.398 331.786Z" fill="#2B2B2B"/>
<path d="M480.479 312.617C479.741 312.617 478.942 312.799 478.204 313.225C477.469 313.651 476.731 314.138 476.116 314.807C475.501 315.477 475.01 316.146 474.579 316.937V316.633L474.21 313.043L473.78 312.617L466.592 315.051V315.477L467.207 315.659C467.758 315.781 468.126 315.963 468.372 316.268C468.557 316.572 468.68 316.998 468.68 317.607V330.569C468.68 331.116 468.557 331.542 468.372 331.847C468.188 332.212 467.758 332.455 467.207 332.577L466.592 332.76V333.125H477.407V332.699L476.055 332.334C475.071 332.09 474.579 331.36 474.579 330.265V318.702C474.764 318.276 474.948 317.85 475.071 317.546C475.255 317.181 475.501 316.937 475.747 316.633C476.055 316.268 476.362 316.085 476.731 316.146C477.1 316.207 477.407 316.389 477.715 316.815L477.776 316.876C478.696 318.032 479.679 318.641 480.848 318.641C481.585 318.641 482.262 318.398 482.815 317.85C483.368 317.363 483.611 316.633 483.611 315.659C483.611 314.746 483.307 314.016 482.753 313.468C482.385 312.86 481.524 312.617 480.479 312.617Z" fill="#2B2B2B"/>
<path d="M513.232 330.691C513.047 331.238 512.801 331.603 512.494 331.908C512.189 332.212 511.759 332.334 511.205 332.334H502.724V319.432H507.209C507.762 319.432 508.193 319.554 508.439 319.858C508.685 320.163 508.992 320.528 509.238 321.015L510.099 322.78H510.529V315.355H510.099L509.238 316.998C508.992 317.485 508.746 317.911 508.439 318.155C508.131 318.459 507.701 318.581 507.148 318.581H502.662V306.592H510.16C510.714 306.592 511.144 306.714 511.39 307.079C511.636 307.383 511.943 307.809 512.189 308.296L513.969 312.191H514.4L514.154 305.801H494.245V306.227L495.229 306.592C495.782 306.775 496.089 307.018 496.271 307.383C496.455 307.748 496.517 308.113 496.517 308.661V330.265C496.517 330.812 496.394 331.238 496.271 331.543C496.089 331.847 495.782 332.09 495.29 332.334L494.306 332.699V333.125H515.199L515.445 326.735H515.014L513.232 330.691Z" fill="#2B2B2B"/>
<path d="M533.878 306.227L534.616 306.532C535.169 306.714 535.538 306.958 535.723 307.323C535.907 307.627 535.966 308.053 535.966 308.601V318.642H525.95V308.601C525.95 308.053 526.073 307.627 526.257 307.323C526.442 307.018 526.811 306.775 527.364 306.532L528.102 306.227V305.801H517.471V306.227L518.332 306.532C518.885 306.714 519.254 306.958 519.438 307.323C519.623 307.627 519.684 308.114 519.684 308.661V330.326C519.684 330.874 519.561 331.3 519.438 331.604C519.254 331.908 518.885 332.212 518.332 332.395L517.471 332.699V333.125H528.102V332.699L527.364 332.456C526.442 332.091 526.011 331.36 526.011 330.326V319.433H536.027V330.326C536.027 330.874 535.904 331.3 535.784 331.604C535.6 331.908 535.231 332.212 534.677 332.395L533.94 332.638V333.064H544.632V332.638L543.771 332.334C543.218 332.152 542.849 331.847 542.665 331.543C542.48 331.239 542.357 330.813 542.357 330.265V308.601C542.357 308.053 542.48 307.627 542.665 307.262C542.849 306.958 543.218 306.653 543.771 306.471L544.632 306.166V305.74H533.94V306.227H533.878Z" fill="#2B2B2B"/>
<path d="M566.631 325.944L564.974 329.413C564.543 330.326 564.052 331.056 563.56 331.543C563.068 332.029 562.33 332.273 561.285 332.273H554.835V308.661C554.835 308.113 554.958 307.687 555.142 307.322C555.324 306.957 555.693 306.714 556.246 306.531L556.984 306.227V305.801H546.292V306.227L547.153 306.531C547.706 306.714 548.075 306.957 548.259 307.322C548.444 307.627 548.505 308.113 548.505 308.661V330.265C548.505 330.812 548.444 331.238 548.259 331.543C548.136 331.847 547.767 332.151 547.153 332.334L546.292 332.638V333.064H566.631L567 325.883H566.631V325.944Z" fill="#2B2B2B"/>
</svg>
