<svg width="177" height="144" viewBox="0 0 177 144" fill="none" xmlns="http://www.w3.org/2000/svg">
<path d="M66.2263 81.6165C66.8697 70.145 72.4779 60.0088 80.9754 52.8467C89.2907 45.806 100.459 41.4966 112.719 41.4966C124.919 41.4966 136.087 45.7999 144.403 52.8467C152.9 60.0088 158.484 70.145 159.152 81.6165C159.795 93.3916 155.055 104.378 146.77 112.511C138.272 120.765 126.255 125.985 112.719 125.985C99.1842 125.985 87.1057 120.802 78.669 112.511C70.3536 104.378 65.6193 93.4523 66.2869 81.6773L66.2263 81.6165Z" fill="white"/>
<path d="M91.6571 80.2114C91.9877 74.3163 94.8698 69.1075 99.2365 65.4269C103.51 61.8088 109.249 59.5942 115.549 59.5942C121.819 59.5942 127.558 61.8057 131.831 65.4269C136.198 69.1075 139.067 74.3163 139.411 80.2114C139.741 86.2625 137.305 91.9081 133.048 96.0877C128.681 100.33 122.505 103.012 115.549 103.012C108.594 103.012 102.387 100.348 98.0513 96.0877C93.7781 91.9081 91.3452 86.2937 91.6883 80.2427L91.6571 80.2114Z" fill="#265787"/>
<path d="M54.2278 92.688C54.2683 94.9961 55.0044 99.4876 56.1086 102.981C58.4292 110.404 62.378 117.266 67.8364 123.286C73.4508 129.493 80.3752 134.484 88.3601 138.04C96.7504 141.751 105.858 143.654 115.309 143.654C124.76 143.642 133.868 141.708 142.258 137.946C150.243 134.359 157.167 129.369 162.782 123.13C168.271 117.048 172.201 110.186 174.51 102.763C175.679 99.0198 176.418 95.2145 176.715 91.4092C177.005 87.6662 176.883 83.8921 176.35 80.118C175.308 72.7881 172.763 65.8949 168.864 59.6567C165.308 53.8864 160.692 48.8646 155.202 44.6227L155.215 44.6133L100.007 2.19354C99.9569 2.15611 99.9164 2.11553 99.8633 2.08122C96.2452 -0.701015 90.1317 -0.691642 86.1705 2.09683C82.1468 4.9165 81.679 9.58266 85.266 12.5146L85.2504 12.5302L108.3 31.276L38.1207 31.3509H38.0272C32.2256 31.3571 26.6425 35.1562 25.5508 39.9908C24.4154 44.8878 28.358 48.9738 34.409 48.9738L34.3997 48.9957L69.9574 48.927L6.32778 97.585C6.24668 97.6443 6.15934 97.7066 6.08448 97.7659C0.095809 102.351 -1.83804 109.993 1.93607 114.796C5.77257 119.693 13.9134 119.724 19.9645 114.824L54.5865 86.4405C54.5865 86.4405 54.0812 90.2769 54.1217 92.5539L54.2278 92.688ZM143.434 105.507C136.291 112.775 126.279 116.923 115.487 116.923C104.664 116.942 94.6513 112.869 87.5086 105.601C84.0152 102.045 81.4575 97.9905 79.8668 93.6549C78.3166 89.3817 77.7146 84.8591 78.1139 80.3052C78.4913 75.8449 79.82 71.5717 81.9503 67.7352C84.0339 63.9611 86.9097 60.5301 90.4343 57.6293C97.3899 51.9838 106.217 48.8958 115.45 48.8958C124.713 48.8833 133.54 51.9182 140.496 57.5669C144.02 60.449 146.89 63.8675 148.98 67.6416C151.11 71.4781 152.442 75.7201 152.816 80.2116C153.209 84.7655 152.607 89.2882 151.057 93.5613C149.473 97.9281 146.909 101.983 143.415 105.539L143.434 105.507Z" fill="#EA7600"/>
</svg>
