<svg width="180" height="180" viewBox="0 0 180 180" fill="none" xmlns="http://www.w3.org/2000/svg">
<path d="M176.605 81.9821L98.0158 3.39533C93.4908 -1.13178 86.1508 -1.13178 81.6218 3.39533L65.3042 19.7172L86.0039 40.4173C90.8149 38.7914 96.3312 39.8825 100.165 43.7181C104.022 47.5772 105.103 53.1406 103.436 57.9694L123.389 77.9212C128.218 76.2561 133.785 77.3335 137.64 81.1946C143.027 86.5817 143.027 95.3107 137.64 100.702C132.249 106.091 123.521 106.091 118.128 100.702C114.077 96.6467 113.074 90.6915 115.129 85.7001L96.5192 67.0922V116.06C97.8317 116.71 99.0717 117.576 100.165 118.669C105.552 124.056 105.552 132.785 100.165 138.178C94.7778 143.563 86.043 143.563 80.66 138.178C75.273 132.783 75.273 124.054 80.66 118.669C81.992 117.339 83.5337 116.332 85.1792 115.658V66.2342C83.5337 65.5603 81.996 64.5632 80.66 63.2233C76.5796 59.1448 75.5982 53.1543 77.6903 48.1434L57.2845 27.7332L3.39526 81.6177C-1.13175 86.1487 -1.13175 93.4889 3.39526 98.016L81.9881 176.605C86.5132 181.132 93.8512 181.132 98.3821 176.605L176.605 98.3803C181.132 93.8532 181.132 86.5092 176.605 81.9821Z" fill="#F05133"/>
</svg>
