<svg width="216" height="162" viewBox="0 0 216 162" fill="none" xmlns="http://www.w3.org/2000/svg">
<g clip-path="url(#clip0_1672_73)">
<path d="M185.875 93.1127C178.344 93.1521 171.799 94.967 166.318 97.6499C164.307 93.665 162.296 90.1141 161.941 87.5101C161.547 84.4721 161.073 82.6178 161.547 78.988C162.02 75.3582 164.149 70.1896 164.11 69.7951C164.07 69.4005 163.636 67.5462 159.299 67.5067C154.962 67.4673 151.216 68.3353 150.782 69.4795C150.348 70.6236 149.52 73.2276 148.968 75.9105C148.219 79.856 140.294 93.9412 135.759 101.319C134.3 98.439 133.038 95.9139 132.762 93.9018C132.368 90.8638 131.895 89.0094 132.368 85.3796C132.841 81.7498 134.971 76.5813 134.931 76.1867C134.892 75.7922 134.458 73.9378 130.121 73.8983C125.783 73.8589 122.037 74.7269 121.604 75.8711C121.17 77.0153 120.697 79.6982 119.79 82.3021C118.883 84.9061 108.355 108.421 105.595 114.497C104.175 117.614 102.953 120.1 102.086 121.796C102.086 121.796 102.046 121.914 101.928 122.112C101.179 123.571 100.745 124.361 100.745 124.361C100.745 124.361 100.745 124.361 100.745 124.4C100.153 125.465 99.5225 126.452 99.2071 126.452C98.9705 126.452 98.5368 123.611 99.286 119.744C100.863 111.577 104.609 98.873 104.57 98.439C104.57 98.2023 105.279 95.9928 102.125 94.8487C99.0494 93.7045 97.9453 95.5983 97.6693 95.5983C97.3933 95.5983 97.1961 96.269 97.1961 96.269C97.1961 96.269 100.627 81.9865 90.6507 81.9865C84.4207 81.9865 75.8248 88.8121 71.5664 94.967C68.8851 96.4268 63.1677 99.5437 57.0559 102.897C54.7295 104.199 52.3243 105.501 50.0768 106.724C49.919 106.567 49.7613 106.369 49.6036 106.212C37.5379 93.3099 15.2202 84.196 16.1666 66.8755C16.5214 60.5627 18.6901 43.9919 59.0275 23.8701C92.2279 7.4965 118.646 12.0338 123.22 22.0946C129.766 36.4561 109.065 63.1273 74.7602 66.9938C61.6693 68.4536 54.8084 63.4035 53.0735 61.5096C51.2597 59.5369 50.9837 59.4186 50.3133 59.8131C49.2093 60.4049 49.919 62.1804 50.3133 63.2062C51.3385 65.8891 55.5576 70.6236 62.6945 72.9514C69.0034 75.0031 84.3418 76.1473 102.914 68.9665C123.693 60.9178 139.939 38.5472 135.168 19.8063C130.397 0.789241 98.8522 -5.48402 69.0034 5.12923C51.2597 11.4419 32.0176 21.3845 18.1775 34.3255C1.73502 49.7128 -0.867385 63.0878 0.197237 68.6904C4.02199 88.5754 31.4262 101.516 42.3878 111.104C41.8358 111.42 41.3232 111.696 40.8895 111.932C35.4086 114.655 14.5105 125.584 9.30567 137.144C3.3911 150.243 10.252 159.633 14.7865 160.895C28.8632 164.801 43.3342 157.779 51.102 146.179C58.8697 134.579 57.9234 119.508 54.3352 112.603C54.2958 112.524 54.2564 112.445 54.1775 112.366C55.597 111.538 57.0559 110.67 58.4754 109.841C61.275 108.184 64.0351 106.646 66.401 105.383C65.0603 109.052 64.0746 113.432 63.6014 119.744C63.0099 127.162 66.0461 136.789 70.0286 140.576C71.8029 142.233 73.8927 142.273 75.2334 142.273C79.8862 142.273 81.976 138.406 84.3024 133.83C87.1414 128.227 89.7044 121.717 89.7044 121.717C89.7044 121.717 86.5105 139.314 95.1852 139.314C98.3396 139.314 101.533 135.211 102.953 133.119C102.953 133.159 102.953 133.159 102.953 133.159C102.953 133.159 103.032 133.041 103.19 132.764C103.505 132.251 103.702 131.936 103.702 131.936C103.702 131.936 103.702 131.896 103.702 131.857C104.964 129.647 107.803 124.637 112.022 116.312C117.463 105.58 122.708 92.1658 122.708 92.1658C122.708 92.1658 123.181 95.4405 124.797 100.885C125.744 104.081 127.715 107.592 129.293 110.986C128.031 112.761 127.242 113.747 127.242 113.747C127.242 113.747 127.242 113.747 127.282 113.787C126.256 115.128 125.152 116.588 123.93 118.008C119.632 123.138 114.506 129.016 113.796 130.713C112.968 132.725 113.165 134.185 114.743 135.368C115.886 136.236 117.937 136.355 120.026 136.236C123.891 135.96 126.611 135.013 127.952 134.421C130.042 133.672 132.486 132.528 134.773 130.831C138.992 127.714 141.555 123.256 141.319 117.377C141.201 114.142 140.136 110.907 138.835 107.869C139.229 107.316 139.584 106.764 139.978 106.212C146.642 96.4663 151.807 85.7741 151.807 85.7741C151.807 85.7741 152.28 89.0489 153.897 94.4936C154.686 97.2554 156.302 100.254 157.722 103.174C151.452 108.263 147.588 114.181 146.208 118.048C143.724 125.229 145.656 128.464 149.323 129.213C150.979 129.569 153.345 128.779 155.08 128.03C157.288 127.32 159.891 126.097 162.375 124.282C166.594 121.165 170.655 116.825 170.418 110.946C170.3 108.263 169.59 105.62 168.605 103.055C173.928 100.846 180.789 99.6227 189.542 100.648C208.311 102.858 212.018 114.576 211.308 119.508C210.598 124.439 206.655 127.122 205.354 127.951C204.053 128.779 203.619 129.056 203.737 129.647C203.895 130.515 204.526 130.476 205.63 130.318C207.168 130.042 215.488 126.333 215.842 117.259C216.434 105.659 205.393 92.9943 185.875 93.1127ZM41.0866 141.957C34.8566 148.743 26.1819 151.308 22.436 149.138C18.4141 146.81 19.9913 136.789 27.6408 129.608C32.2936 125.229 38.2871 121.165 42.2695 118.679C43.1764 118.127 44.5171 117.338 46.1337 116.351C46.4097 116.194 46.5674 116.115 46.5674 116.115C46.8829 115.917 47.1983 115.72 47.5138 115.523C50.3133 125.781 47.6321 134.816 41.0866 141.957ZM86.4316 111.104C84.263 116.391 79.7285 129.924 76.9683 129.174C74.6025 128.543 73.1436 118.285 76.4952 108.145C78.1907 103.055 81.7788 96.9792 83.8687 94.6119C87.2597 90.8243 91.0056 89.5618 91.9125 91.1005C93.056 93.1127 87.7723 107.79 86.4316 111.104ZM123.851 129.016C122.944 129.49 122.077 129.805 121.682 129.569C121.406 129.411 122.077 128.779 122.077 128.779C122.077 128.779 126.769 123.729 128.622 121.441C129.687 120.1 130.949 118.521 132.289 116.746C132.289 116.904 132.289 117.101 132.289 117.259C132.289 123.295 126.454 127.359 123.851 129.016ZM152.714 122.427C152.044 121.954 152.162 120.376 154.41 115.444C155.277 113.511 157.328 110.275 160.837 107.158C161.231 108.421 161.507 109.644 161.468 110.788C161.428 118.403 155.987 121.244 152.714 122.427Z" fill="#CD6799"/>
</g>
<defs>
<clipPath id="clip0_1672_73">
<rect width="216" height="162" fill="white"/>
</clipPath>
</defs>
</svg>
