<svg width="168" height="183" viewBox="0 0 168 183" fill="none" xmlns="http://www.w3.org/2000/svg">
<path d="M153.851 159.542V143.667H147.84V164.234H168V159.542H153.851Z" fill="white"/>
<path d="M91.0376 182.684H94.234V171.248H91.0376V182.684Z" fill="white"/>
<path d="M43.2893 178.027H52.0456V175.633H43.2898V173.478H52.5257V171.059H39.9528V182.661H52.7606V180.194H43.2893V178.027Z" fill="white"/>
<path d="M119.04 178.023H127.636V175.691H119.073V173.538H128.141V171.237H115.66V182.652H128.343V180.206H119.04V178.023Z" fill="white"/>
<path d="M38.9344 73.7747C38.9344 73.7747 36.5958 62.158 48.9642 48.0893C61.3337 34.0211 70.6141 28.9053 80.6373 26.2406C80.6373 26.2406 80.6288 26.2457 80.6198 26.2509C80.6326 26.2475 80.6453 26.2439 80.6578 26.2406C80.6578 26.2406 72.7842 30.8242 72.7842 37.7508C72.7842 39.7614 73.1049 41.143 73.5493 42.0659C74.1389 43.2919 75.0727 43.7088 75.9111 43.7128C76.6176 43.7168 77.0311 43.4266 77.925 43.0797V80.5946C77.925 80.5946 78.0217 81.1994 78.5649 81.916C79.3472 82.9466 80.5767 84.2044 82.8865 84.2171C86.8267 84.1919 91.7826 79.7432 91.7826 79.7432V49.3683C91.7826 46.2782 89.5701 42.5478 87.2255 41.2679C87.2255 41.2679 87.5449 41.2478 88.0621 41.248C89.6101 41.2475 92.931 41.4245 94.7815 42.8375C95.2956 42.2421 103.592 32.8592 118.354 29.9719C118.354 29.9719 118.352 29.9748 118.347 29.9801C118.361 29.9775 118.374 29.9746 118.388 29.9719C118.388 29.9719 110.222 39.5818 107.663 44.3475C107.208 44.3745 107.142 53.3889 107.218 62.3963C107.291 71.0912 107.498 79.7812 107.617 80.3824C107.617 80.3824 108.489 81.6768 110.707 81.6879C113.21 81.7007 117.427 80.0806 124.038 73.1342C124.038 73.1342 123.864 73.5299 123.513 74.2307C121.618 78.0147 114.578 90.7003 102.073 98.0735L102.072 98.0729L102.071 98.0735L93.9596 91.2166L93.7524 91.0437L84.9059 100.419C84.9059 100.419 84.9007 100.419 84.8925 100.418L84.8913 100.419C84.8913 100.419 64.7235 98.714 56.3001 86.5649C56.3001 86.5649 56.3159 86.5707 56.3398 86.5794C56.3363 86.5745 56.3327 86.5698 56.3293 86.5649C56.3293 86.5649 57.6049 87.061 59.0445 87.0881C60.7314 87.1189 62.5027 86.503 62.5027 83.6859V55.1236C62.5027 53.665 61.498 52.0288 59.2926 52.0351C57.3092 52.0402 54.4617 53.3741 50.5735 57.3617C42.363 65.7807 38.9534 73.7747 38.9534 73.7747C38.9534 73.7747 38.9511 73.7638 38.9476 73.7444C38.9395 73.7631 38.9344 73.7747 38.9344 73.7747ZM83.7362 122.199C99.4683 122.199 114.259 116.076 125.383 104.957C136.507 93.8378 142.634 79.0545 142.634 63.3299C142.634 47.6054 136.507 32.8221 125.383 21.703C114.259 10.5842 99.4683 4.46068 83.7362 4.46068C68.0042 4.46068 53.2138 10.5842 42.0895 21.703C30.9653 32.8221 24.8389 47.6054 24.8389 63.3299C24.8389 79.0545 30.9653 93.8378 42.0895 104.957C53.2138 116.076 68.0042 122.199 83.7362 122.199Z" fill="white"/>
<path d="M83.7365 1.7506C117.762 1.7506 145.345 29.3207 145.345 63.33C145.345 97.3392 117.762 124.909 83.7365 124.909C49.711 124.909 22.1278 97.3392 22.1278 63.33C22.1278 29.3207 49.711 1.7506 83.7365 1.7506ZM83.7365 126.66C100.661 126.66 116.572 120.073 128.539 108.111C140.506 96.1496 147.097 80.2461 147.097 63.33C147.097 46.414 140.506 30.5103 128.539 18.5488C116.572 6.5873 100.661 0 83.7365 0C66.8123 0 50.9012 6.5873 38.934 18.5488C26.9668 30.5103 20.3763 46.414 20.3763 63.33C20.3763 80.2461 26.9668 96.1496 38.934 108.111C50.9012 120.073 66.8123 126.66 83.7365 126.66Z" fill="white"/>
<path d="M109.279 179.655C109.19 179.678 109.102 179.701 109.013 179.724C106.794 176.861 104.574 173.999 102.425 171.226H97.2159V182.646H100.519V173.889C102.983 177.033 105.227 179.896 107.423 182.698H112.566V171.262H109.279V179.655Z" fill="white"/>
<path d="M80.5709 178.318H85.0601C85.1714 179.501 84.8225 180.099 83.8549 180.191C82.8954 180.283 81.93 180.361 80.9671 180.363C76.9656 180.373 76.5367 179.905 76.7792 175.91C76.7837 175.836 76.7857 175.762 76.7933 175.688C76.9431 174.198 77.492 173.635 78.9857 173.566C80.1368 173.512 81.2917 173.546 82.445 173.536C83.6459 173.526 84.7916 173.611 85.0838 175.016H88.0337C88.4494 172.658 87.6758 171.374 85.4094 171.241C82.4908 171.07 79.5474 171.096 76.6272 171.26C74.6644 171.37 73.6563 172.527 73.5419 174.448C73.4427 176.113 73.4478 177.794 73.5403 179.46C73.6389 181.237 74.4699 182.125 76.2086 182.569C76.8501 182.733 77.5016 182.857 78.1487 183H83.96C84.4273 182.901 84.8936 182.796 85.3623 182.703C86.6173 182.455 87.8511 182.051 88.1034 180.63C88.3524 179.228 88.3406 177.779 88.449 176.27H80.5709V178.318Z" fill="white"/>
<path d="M57.4599 164.146V143.728H51.5539V159.32C47.3349 153.86 43.3396 148.69 39.4315 143.633H30.1786V164.172H36.0587V148.901L36.3328 148.832C40.3566 153.971 44.3805 159.11 48.323 164.146H57.4599Z" fill="white"/>
<path d="M68.0939 153.95V148.07C70.8225 148.07 73.485 148.069 76.1477 148.07C76.5191 148.07 76.8904 148.081 77.2619 148.083C80.5701 148.106 80.9169 149.071 80.5846 152.323C80.4764 153.382 79.6742 153.91 78.7281 153.926C75.2121 153.986 71.6944 153.95 68.0939 153.95ZM80.7095 161.413C80.7893 162.321 80.832 163.232 80.8928 164.161H86.7915C86.7915 162.875 86.8404 161.69 86.7814 160.511C86.6516 157.917 86.2698 156.772 83.7419 156.334C83.6096 156.311 83.4929 156.197 83.1818 156.017C85.7229 155.452 86.6332 153.736 86.7537 151.504C86.8134 150.396 86.7931 149.266 86.6455 148.168C86.287 145.498 85.306 144.443 82.6758 143.949C81.3671 143.703 80.0193 143.571 78.6877 143.56C73.5876 143.516 68.4871 143.54 63.3865 143.545C62.9887 143.546 62.5911 143.595 62.1246 143.626V164.153H68.0555V158.49C69.4055 158.49 70.6278 158.465 71.8489 158.495C74.0044 158.549 76.1725 158.514 78.3101 158.747C80.0607 158.938 80.5544 159.651 80.7095 161.413Z" fill="white"/>
<path d="M97.0544 155.883H112.429V151.736H97.0291V148.031H113.312V143.67H91.0082V164.166H113.587V159.655H97.0544V155.883Z" fill="white"/>
<path d="M25.7303 144.258C25.7312 144.053 25.6044 143.847 25.541 143.653H19.6535C19.6535 147.294 19.6653 150.825 19.6456 154.356C19.6401 155.32 19.5764 156.287 19.4731 157.246C19.3245 158.622 18.4557 159.489 17.1459 159.555C14.4419 159.691 11.7184 159.791 9.02195 159.614C6.85009 159.472 6.14469 158.498 6.11988 156.286C6.07741 152.489 6.09686 148.691 6.07786 144.893C6.07585 144.47 5.99181 144.047 5.94599 143.627H0.0629571C0.0629571 148.73 -0.112947 153.684 0.123304 158.618C0.287585 162.048 1.71046 163.399 5.17242 163.978C10.1974 164.82 15.274 164.785 20.2992 164.038C24.1364 163.468 25.4388 162.044 25.6082 158.214C25.8137 153.569 25.712 148.911 25.7303 144.258Z" fill="white"/>
<path d="M125.847 156.181C127.279 153.368 128.668 150.638 130.208 147.611C131.748 150.603 133.14 153.311 134.617 156.181H125.847ZM126.472 143.602C122.771 150.424 119.079 157.226 115.302 164.185H121.754C122.4 162.953 123.017 161.778 123.619 160.632H136.88C137.522 161.845 138.144 163.022 138.752 164.172H145.271C141.428 157.134 137.714 150.331 134.04 143.602H126.472Z" fill="white"/>
<path d="M67.2604 179.648C67.1685 179.67 67.0766 179.692 66.9848 179.714C64.7177 176.792 62.4506 173.871 60.2752 171.068H55.045V182.67H58.2707V174.205C58.3805 174.166 58.49 174.127 58.5995 174.089C60.8793 176.984 63.1592 179.88 65.3688 182.687H70.5916V171.094H67.2604V179.648Z" fill="white"/>
</svg>
