<svg width="219" height="228" viewBox="0 0 219 228" fill="none" xmlns="http://www.w3.org/2000/svg">
<path d="M68.525 93.1518L108.533 62.9883L116.065 68.5438L122.429 51.1045L108.533 40.8093L51.6329 83.393V136.743L59.633 144.829L74.4268 135.511L68.525 129.525V93.1518Z" fill="#006FD8"/>
<path d="M109.422 0C49.027 0 2.73427 40.8093 0.0674106 102.911C-0.895331 125.329 8.56968 147.863 21.059 167.508L36.5174 158.386C25.1564 141.899 16.0691 121.951 16.0691 102.911C16.0691 56.7782 57.8549 15.9689 109.422 15.9689C118.27 15.9689 126.777 17.2748 134.801 19.6536L140.537 4.16522C130.797 1.44581 120.381 0 109.422 0Z" fill="#006FD8"/>
<path d="M167.211 137.51V84.2802L122.429 51.1045L116.065 68.5438L149.429 93.1518V129.525L144.567 134.572L160.097 144.608L167.211 137.51Z" fill="url(#paint0_linear_1715_76)"/>
<path d="M127.203 152.591L139.65 165.012L160.097 144.608L144.567 134.572L127.203 152.591Z" fill="#0F2E4A"/>
<path d="M200.993 102.911C200.993 121.799 192.158 141.194 181.434 157.246L197.651 167.131C210.812 147.182 220.624 124.568 218.776 102.911C214.656 54.6176 184.477 16.4327 140.537 4.16522L134.801 19.6536C173.539 31.1387 200.993 67.6334 200.993 102.911Z" fill="url(#paint1_linear_1715_76)"/>
<path d="M111.2 196.949L142.317 228C142.317 228 174.961 201.526 197.651 167.131L181.434 157.246C167.981 177.383 151.556 192.262 145.872 194.288C135.655 197.929 122.756 184.529 122.756 184.529L74.4268 135.511L59.633 144.829L111.2 196.949Z" fill="#0F2E4A"/>
<path d="M74.7484 228L101.42 201.385L89.8624 188.965C89.8624 188.965 88.9748 189.852 79.1937 195.175C73.4497 198.301 52.6821 181.846 36.5174 158.386L21.059 167.508C43.1659 202.281 74.7484 228 74.7484 228Z" fill="#0F2E4A"/>
<defs>
<linearGradient id="paint0_linear_1715_76" x1="121.801" y1="54.1167" x2="157.236" y2="134.904" gradientUnits="userSpaceOnUse">
<stop stop-color="#AD3C2A"/>
<stop offset="0.5" stop-color="#EEC99A"/>
<stop offset="1" stop-color="#AD3C2A"/>
</linearGradient>
<linearGradient id="paint1_linear_1715_76" x1="144.917" y1="11.5331" x2="195.4" y2="156.207" gradientUnits="userSpaceOnUse">
<stop stop-color="#AD3C2A"/>
<stop offset="0.5" stop-color="#F0CD9E"/>
<stop offset="1" stop-color="#AD3C2A"/>
</linearGradient>
</defs>
</svg>
