<svg width="22" height="22" viewBox="0 0 22 22" fill="none" xmlns="http://www.w3.org/2000/svg">
<path d="M7.35847 17.7005C7.35847 17.7915 7.25645 17.8642 7.12782 17.8642C6.98145 17.8778 6.87944 17.8051 6.87944 17.7005C6.87944 17.6096 6.98145 17.5369 7.11008 17.5369C7.24314 17.5233 7.35847 17.596 7.35847 17.7005ZM5.97903 17.496C5.94798 17.5869 6.03669 17.6914 6.16976 17.7187C6.28508 17.7642 6.41815 17.7187 6.44476 17.6278C6.47137 17.5369 6.3871 17.4323 6.25403 17.3914C6.13871 17.3596 6.01008 17.4051 5.97903 17.496ZM7.93952 17.4187C7.81089 17.4505 7.72218 17.5369 7.73548 17.6414C7.74879 17.7324 7.86411 17.7915 7.99718 17.7596C8.12581 17.7278 8.21452 17.6414 8.20121 17.5505C8.1879 17.4642 8.06814 17.4051 7.93952 17.4187ZM10.8581 0C4.70605 0 0 4.78651 0 11.0912C0 16.1323 3.09597 20.4461 7.51815 21.9643C8.08589 22.0689 8.28548 21.7098 8.28548 21.4143C8.28548 21.1325 8.27218 19.5779 8.27218 18.6233C8.27218 18.6233 5.16734 19.3051 4.51532 17.2687C4.51532 17.2687 4.00968 15.9459 3.28226 15.605C3.28226 15.605 2.26653 14.8914 3.35323 14.905C3.35323 14.905 4.45766 14.9959 5.06532 16.0778C6.03669 17.8324 7.66452 17.3278 8.29879 17.0278C8.40081 16.3005 8.68911 15.7959 9.00847 15.4959C6.52903 15.2141 4.02742 14.8459 4.02742 10.473C4.02742 9.22301 4.36452 8.59572 5.07419 7.79569C4.95887 7.50023 4.58185 6.28201 5.18952 4.70923C6.11653 4.41377 8.25 5.93654 8.25 5.93654C9.1371 5.68199 10.0907 5.55017 11.0355 5.55017C11.9802 5.55017 12.9339 5.68199 13.821 5.93654C13.821 5.93654 15.9544 4.40922 16.8815 4.70923C17.4891 6.28655 17.1121 7.50023 16.9968 7.79569C17.7065 8.60026 18.1411 9.22755 18.1411 10.473C18.1411 14.8595 15.5286 15.2096 13.0492 15.4959C13.4573 15.855 13.8032 16.5369 13.8032 17.6051C13.8032 19.1369 13.7899 21.0325 13.7899 21.4052C13.7899 21.7007 13.994 22.0598 14.5573 21.9552C18.9927 20.4461 22 16.1323 22 11.0912C22 4.78651 17.0101 0 10.8581 0ZM4.31129 15.6777C4.25363 15.7232 4.26694 15.8278 4.34234 15.9141C4.41331 15.9869 4.51532 16.0187 4.57298 15.9596C4.63064 15.9141 4.61734 15.8096 4.54194 15.7232C4.47097 15.6505 4.36895 15.6187 4.31129 15.6777ZM3.83226 15.3096C3.80121 15.3686 3.84556 15.4414 3.93427 15.4868C4.00524 15.5323 4.09395 15.5187 4.125 15.455C4.15605 15.3959 4.11169 15.3232 4.02298 15.2777C3.93427 15.2505 3.86331 15.2641 3.83226 15.3096ZM5.26935 16.9278C5.19839 16.9869 5.225 17.1232 5.32702 17.2096C5.42903 17.3142 5.55766 17.3278 5.61532 17.2551C5.67298 17.196 5.64637 17.0596 5.55766 16.9732C5.46008 16.8687 5.32702 16.8551 5.26935 16.9278ZM4.76371 16.2596C4.69274 16.305 4.69274 16.4232 4.76371 16.5278C4.83468 16.6323 4.95444 16.6778 5.0121 16.6323C5.08306 16.5732 5.08306 16.455 5.0121 16.3505C4.95 16.2459 4.83468 16.2005 4.76371 16.2596Z" fill="white"/>
</svg>
