<svg width="22" height="22" viewBox="0 0 22 22" fill="none" xmlns="http://www.w3.org/2000/svg">
<path d="M10.946 5.32665C7.84058 5.32665 5.33569 7.82958 5.33569 10.9326C5.33569 14.0357 7.84058 16.5386 10.946 16.5386C14.0515 16.5386 16.5564 14.0357 16.5564 10.9326C16.5564 7.82958 14.0515 5.32665 10.946 5.32665ZM10.946 14.5772C8.93921 14.5772 7.29858 12.9428 7.29858 10.9326C7.29858 8.92247 8.93433 7.28801 10.946 7.28801C12.9578 7.28801 14.5935 8.92247 14.5935 10.9326C14.5935 12.9428 12.9529 14.5772 10.946 14.5772ZM18.0945 5.09734C18.0945 5.82431 17.5085 6.40491 16.7859 6.40491C16.0584 6.40491 15.4773 5.81943 15.4773 5.09734C15.4773 4.37524 16.0632 3.78976 16.7859 3.78976C17.5085 3.78976 18.0945 4.37524 18.0945 5.09734ZM21.8103 6.42442C21.7273 4.67286 21.3269 3.12134 20.0427 1.84304C18.7634 0.564744 17.2107 0.164666 15.4578 0.0768443C13.6511 -0.0256148 8.23608 -0.0256148 6.42944 0.0768443C4.6814 0.159787 3.12866 0.559865 1.84448 1.83816C0.560303 3.11646 0.164795 4.66798 0.0769043 6.41955C-0.0256348 8.22478 -0.0256348 13.6356 0.0769043 15.4408C0.159912 17.1924 0.560303 18.7439 1.84448 20.0222C3.12866 21.3005 4.67651 21.7006 6.42944 21.7884C8.23608 21.8909 13.6511 21.8909 15.4578 21.7884C17.2107 21.7055 18.7634 21.3054 20.0427 20.0222C21.322 18.7439 21.7224 17.1924 21.8103 15.4408C21.9128 13.6356 21.9128 8.22965 21.8103 6.42442ZM19.4763 17.3778C19.0955 18.3341 18.3582 19.0708 17.3962 19.4562C15.9558 20.0271 12.5378 19.8953 10.946 19.8953C9.35425 19.8953 5.9314 20.0222 4.49585 19.4562C3.53882 19.0757 2.80151 18.3389 2.41577 17.3778C1.84448 15.9385 1.97632 12.5232 1.97632 10.9326C1.97632 9.34207 1.84937 5.92189 2.41577 4.48746C2.79663 3.53118 3.53394 2.79445 4.49585 2.40901C5.93628 1.83816 9.35425 1.9699 10.946 1.9699C12.5378 1.9699 15.9607 1.84304 17.3962 2.40901C18.3533 2.78957 19.0906 3.5263 19.4763 4.48746C20.0476 5.92677 19.9158 9.34207 19.9158 10.9326C19.9158 12.5232 20.0476 15.9434 19.4763 17.3778Z" fill="white"/>
</svg>
