<svg width="22" height="22" viewBox="0 0 22 22" fill="none" xmlns="http://www.w3.org/2000/svg">
<path d="M20.3125 0H1.55762C0.698242 0 0 0.707455 0 1.57592V20.282C0 21.1505 0.698242 21.8579 1.55762 21.8579H20.3125C21.1719 21.8579 21.875 21.1505 21.875 20.282V1.57592C21.875 0.707455 21.1719 0 20.3125 0ZM6.61133 18.7354H3.36914V8.30406H6.61621V18.7354H6.61133ZM4.99023 6.87939C3.9502 6.87939 3.11035 6.03532 3.11035 5.00098C3.11035 3.96663 3.9502 3.12256 4.99023 3.12256C6.02539 3.12256 6.87012 3.96663 6.87012 5.00098C6.87012 6.0402 6.03027 6.87939 4.99023 6.87939ZM18.7646 18.7354H15.5225V13.6612C15.5225 12.4512 15.498 10.8948 13.8379 10.8948C12.1484 10.8948 11.8896 12.2121 11.8896 13.5734V18.7354H8.64746V8.30406H11.7578V9.72873H11.8018C12.2363 8.90905 13.2959 8.04547 14.873 8.04547C18.1543 8.04547 18.7646 10.2069 18.7646 13.0172V18.7354Z" fill="white"/>
</svg>
