<svg width="232" height="137" viewBox="0 0 232 137" fill="none" xmlns="http://www.w3.org/2000/svg">
<path fill-rule="evenodd" clip-rule="evenodd" d="M78.4181 18.9827C78.19 18.0433 77.1293 14.1881 75.6585 10.2189C74.9186 8.22187 74.0704 6.18389 73.1672 4.4694C72.2745 2.77494 71.2912 1.32317 70.2557 0.575195L69.6702 1.38583C70.5031 1.9875 71.397 3.25482 72.2824 4.9355C73.1573 6.59617 73.9883 8.5894 74.7208 10.5663C76.186 14.5205 77.2395 18.3608 77.45 19.2341L77.4541 19.2509L88.5744 54.4652C82.3519 56.0025 76.5865 57.3963 71.3684 58.6256C59.9502 54.0507 45.6921 52.8721 27.9049 56.8967C14.0635 60.0285 6.2784 62.2503 2.85424 63.7878C2.00136 64.1708 1.37143 64.5315 0.986091 64.8813C0.79381 65.0558 0.623763 65.2618 0.542177 65.504C0.45157 65.773 0.483958 66.0488 0.635909 66.287C0.772289 66.5007 0.983093 66.6509 1.19528 66.7611C1.4135 66.8745 1.67683 66.9679 1.97029 67.0472C2.55753 67.2057 3.32771 67.3235 4.24046 67.4094C11.5076 68.0937 29.2153 66.8644 43.2787 65.5285L43.2865 65.5278L43.2942 65.5268C47.7863 64.958 57.6684 62.877 71.2883 59.6718C82.4993 64.2414 90.8762 72.1516 97.1339 81.5703L114.437 136.362L115.411 136.161C113.783 120.318 109.415 98.3185 98.0451 81.135L89.8488 55.1801C127.38 45.8877 181.074 31.5059 231.635 16.517L231.35 15.5582C180.777 30.5508 127.067 44.9362 89.5471 54.2246L78.4181 18.9827ZM88.8761 55.4207C83.1546 56.8344 77.818 58.1272 72.9364 59.2828C82.6824 63.5507 90.2513 70.3321 96.1235 78.3708L88.8761 55.4207ZM113.799 131.024L99.2461 84.9382C107.875 99.5119 111.93 116.946 113.799 131.024ZM69.6395 59.0316C58.6727 54.9821 45.051 54.0425 28.1255 57.8721C14.2643 61.0084 6.58052 63.2108 3.26388 64.7001C2.43157 65.0738 1.9218 65.3825 1.65818 65.6218C1.57808 65.6945 1.53486 65.7483 1.51226 65.7823C1.51374 65.7835 1.51527 65.7848 1.51687 65.786C1.54643 65.81 1.59126 65.84 1.6563 65.8737C1.78808 65.9422 1.9769 66.0132 2.23089 66.0817C2.73855 66.2187 3.44444 66.3301 4.3342 66.4138C11.4858 67.0872 29.0836 65.8722 43.1764 64.5338C47.4547 63.9911 56.7529 62.0476 69.6395 59.0316Z" fill="#DDDDDD" fill-opacity="0.5"/>
</svg>
