<svg width="156" height="197" viewBox="0 0 156 197" fill="none" xmlns="http://www.w3.org/2000/svg">
<path fill-rule="evenodd" clip-rule="evenodd" d="M71.0434 55.5786C53.9728 36.6132 36.5868 17.4281 21.3065 0.645508L20.567 1.31874C35.9238 18.1853 53.4074 37.4785 70.5599 56.5363L59.7145 78.0184C47.3688 75.3226 37.3396 78.055 29.2944 84.5096C21.1891 91.0123 15.1343 101.262 10.7057 113.427C1.84801 137.759 -0.575369 169.954 0.280129 195.88L1.2262 196.089L60.2552 79.1662C75.4181 82.7261 94.2536 94.5949 117.493 118.168C137.052 138.008 147.996 148.627 152.385 152.253C152.935 152.707 153.391 153.059 153.753 153.308C153.934 153.432 154.098 153.535 154.243 153.613C154.382 153.687 154.532 153.755 154.678 153.785C154.802 153.81 155.102 153.842 155.316 153.593C155.506 153.372 155.468 153.103 155.446 152.995C155.395 152.736 155.228 152.408 155.021 152.058C154.161 150.607 151.917 147.698 148.589 143.645C135.273 127.427 104.141 92.3574 71.761 56.376L84.4081 31.3251L83.5154 30.8744L71.0434 55.5786ZM59.2488 78.9409C47.3045 76.3992 37.6669 79.0744 29.9201 85.2896C22.0157 91.6312 16.043 101.689 11.6453 113.77C3.07203 137.32 0.552221 168.368 1.22134 193.879L59.2488 78.9409ZM60.7186 78.2484L71.2775 57.3337C103.569 93.2188 134.553 128.126 147.817 144.279C150.89 148.022 152.988 150.73 153.938 152.208C153.678 152.013 153.373 151.772 153.022 151.482C148.682 147.896 137.779 137.321 118.205 117.466C95.0382 93.9663 76.1143 81.9393 60.7186 78.2484Z" fill="#DDDDDD" fill-opacity="0.5"/>
</svg>
